<svg width="24" height="24" viewBox="0 0 24 24" fill="none" xmlns="http://www.w3.org/2000/svg">
  <circle cx="12" cy="12" r="9.25" stroke="currentColor" stroke-width="1.5" stroke-opacity="0.45"/>
  <circle cx="12" cy="12" r="6.25" stroke="currentColor" stroke-width="0.8" stroke-opacity="0.2"/>
  <path d="M12 3.5L13.25 10.75L12 11.5L10.75 10.75Z" fill="currentColor"/>
  <path d="M12 20.5L10.75 13.25L12 12.5L13.25 13.25Z" fill="currentColor" fill-opacity="0.38"/>
  <path d="M3.5 12L10.75 10.75L11.5 12L10.75 13.25Z" fill="currentColor" fill-opacity="0.38"/>
  <path d="M20.5 12L13.25 13.25L12.5 12L13.25 10.75Z" fill="currentColor"/>
  <circle cx="12" cy="12" r="1.6" fill="currentColor"/>
  <rect x="11.4" y="1.5" width="1.2" height="2.5" rx="0.6" fill="currentColor"/>
  <rect x="11.4" y="20" width="1.2" height="2.5" rx="0.6" fill="currentColor"/>
  <rect x="20" y="11.4" width="2.5" height="1.2" rx="0.6" fill="currentColor"/>
  <rect x="1.5" y="11.4" width="2.5" height="1.2" rx="0.6" fill="currentColor"/>
</svg>
